<?xml version="1.0" encoding="UTF-8" standalone="no"?>
<!-- Created with Inkscape (http://www.inkscape.org/) -->

<svg
   xmlns:dc="http://purl.org/dc/elements/1.1/"
   xmlns:cc="http://creativecommons.org/ns#"
   xmlns:rdf="http://www.w3.org/1999/02/22-rdf-syntax-ns#"
   xmlns:svg="http://www.w3.org/2000/svg"
   xmlns="http://www.w3.org/2000/svg"
   xmlns:sodipodi="http://sodipodi.sourceforge.net/DTD/sodipodi-0.dtd"
   xmlns:inkscape="http://www.inkscape.org/namespaces/inkscape"
   version="1.1"
   id="svg2"
   xml:space="preserve"
   width="1606.558"
   height="605.133"
   viewBox="0 0 1606.558 605.13298">
   <defs id="defs6"><clipPath
       clipPathUnits="userSpaceOnUse"
       id="clipPath18"><path
         d="M 0,860 H 1300 V 0 H 0 Z"
         id="path16"
         inkscape:connector-curvature="0" /></clipPath>
       </defs>
       <g transform="translate(0 200)">
         <g
     id="g10"
     inkscape:groupmode="layer"
     inkscape:label="Banner_Logo3"
     transform="matrix(1.3333333,0,0,-1.3333333,0,205.13338)"><g
       id="g12"
       transform="translate(-39.081626,-330.21551)"><g
         id="g14"
         clip-path="url(#clipPath18)"><g
           id="g20"
           transform="translate(729.7969,341.9316)"><path
             d="M 0,0 C 1.979,0.115 3.735,0.796 5.254,2.097 6.779,3.375 7.487,4.831 7.383,6.422 6.511,19.946 4.06,38.898 0.049,63.267 c -4.288,25.957 -6.804,44.897 -7.571,56.819 l 0.158,1.016 0.164,1.026 4.628,-0.58 c 2.613,-0.249 4.607,-0.362 5.976,-0.285 1.973,0.105 3.698,0.698 5.16,1.769 1.457,1.093 2.139,2.44 2.029,4.031 -0.196,3.215 -2.665,4.708 -7.389,4.459 l -1.832,-0.092 -1.825,-0.093 c -4.576,-0.248 -9.773,-0.174 -15.608,0.188 -6.129,0.23 -11.332,0.216 -15.592,0.004 -1.685,-0.081 -3.294,-0.618 -4.835,-1.559 -1.541,-0.962 -2.272,-1.961 -2.211,-3.029 0.095,-1.351 1.007,-2.51 2.745,-3.487 2.524,-1.231 8.22,-1.726 17.072,-1.538 0.817,-7.888 3.038,-25.696 6.667,-53.448 3.629,-27.741 5.714,-42.345 6.267,-43.79 l 0.215,-6.835 c 0.172,-2.823 0.421,-5.351 0.723,-7.616 l 0.733,-7.823 z m -42.809,-6.095 c 1.678,0.059 3.146,0.606 4.41,1.642 1.251,1.058 1.864,2.307 1.805,3.778 -0.094,2.682 -1.665,5.721 -4.684,9.118 l -3.106,3.528 c -3.696,4.994 -8.475,15.277 -14.298,30.873 -5.848,15.574 -8.869,26.244 -9.088,32.021 l 0.011,6.031 c 0.088,1.756 0.096,3.762 0.011,6.051 1.282,2.574 7.345,12.148 18.192,28.71 l 5.194,8.213 c -0.067,1.734 -0.992,3.045 -2.781,3.944 -1.795,0.879 -3.895,1.285 -6.337,1.209 -1.994,-0.061 -4.992,-3.512 -9.027,-10.33 -4.316,-6.974 -8.898,-15.301 -13.737,-24.973 l -7.931,-14.922 -0.264,7.227 c -0.789,21.442 -0.241,33.67 1.635,36.685 l -0.018,0.6 c -0.067,1.744 -0.813,3.199 -2.225,4.353 -1.412,1.165 -3.114,1.717 -5.1,1.656 -3.202,-0.094 -5.37,-1.433 -6.485,-4.016 0.276,-7.903 -0.084,-18.789 -1.099,-32.636 -0.952,-15.862 -1.318,-26.737 -1.092,-32.635 l 2.226,-60.913 c 0.076,-2.006 0.848,-3.558 2.343,-4.657 1.489,-1.088 3.384,-1.616 5.666,-1.53 3.047,0.091 4.531,1.675 4.407,4.76 l -1.359,37.193 c -0.507,13.67 1.819,25.401 6.953,35.218 1.269,-5.322 2.857,-11.12 4.765,-17.351 6.633,-22.895 13.112,-39.258 19.43,-49.136 4.212,-6.57 8.067,-9.797 11.583,-9.711 m -87.299,-1.561 c 8.39,0.052 12.579,2.696 12.552,7.908 -0.013,1.473 -0.66,2.59 -1.965,3.319 -1.299,0.719 -2.942,1.097 -4.922,1.079 -1.669,-1.072 -3.355,-1.632 -5.027,-1.636 -2.752,-0.025 -5.27,0.368 -7.559,1.154 -4.438,1.597 -7.574,4.186 -9.425,7.8 -1.849,3.212 -3.164,7.213 -3.946,12.036 -0.473,3.224 -0.728,7.376 -0.747,12.478 -0.033,7.241 0.083,13.741 0.366,19.512 l 0.362,19.304 -0.002,1.003 c -0.029,6.172 0.928,14.227 2.859,24.157 0.897,5.383 2.472,9.737 4.751,13.094 2.272,3.379 4.932,5.081 7.986,5.087 l 10.757,0.063 c 1.368,0.132 2.546,0.742 3.533,1.819 0.993,1.089 1.484,2.282 1.479,3.634 -0.001,1.483 -0.622,2.688 -1.846,3.615 -1.23,0.926 -2.983,1.391 -5.272,1.37 -5.652,-0.028 -10.377,-0.79 -14.183,-2.285 -4.269,-1.51 -7.732,-3.329 -10.394,-5.49 -2.662,-2.161 -4.898,-5.201 -6.709,-9.088 -2.117,-4.173 -3.627,-7.895 -4.524,-11.195 -0.903,-3.29 -1.573,-7.549 -2.002,-12.787 -0.438,-4.954 -0.719,-9.559 -0.848,-13.779 -0.137,-4.222 -0.19,-9.02 -0.162,-14.385 l 0.024,-4.819 0.03,-6.249 0.022,-5.429 c 0.126,-25.744 5.313,-41.466 15.562,-47.176 1.99,-1.062 4.854,-2.018 8.597,-2.867 3.743,-0.851 7.296,-1.266 10.653,-1.247 m -68.453,39.617 c -11.126,0.948 -17.817,2.089 -20.08,3.464 2.738,16.075 7.69,39.814 14.844,71.239 l 1.897,-20.952 c 2.089,-18.803 3.024,-34.234 2.796,-46.297 -0.057,-2.955 0.126,-5.429 0.543,-7.454 m 14.381,-38.8 c 2.456,0.775 3.713,2.639 3.764,5.584 l 0.004,0.207 c 0.035,1.876 -0.567,6.036 -1.827,12.491 -1.382,7.13 -2.073,11.159 -2.056,12.096 0.017,0.939 -0.329,2.952 -1.031,6.043 -0.705,3.353 -1.046,5.454 -1.027,6.25 0.151,8.321 -1.096,22.813 -3.762,43.496 -2.816,20.17 -4.14,35.337 -3.947,45.512 0.03,1.614 -0.708,2.862 -2.22,3.764 -1.513,0.892 -3.33,1.345 -5.471,1.369 l -7.775,0.106 c -1.254,-1.462 -2.173,-3.673 -2.764,-6.6 -0.592,-2.96 -1.161,-6.913 -1.708,-11.857 -0.198,-2.423 -0.387,-4.257 -0.562,-5.534 -0.175,-1.266 -0.27,-2.172 -0.278,-2.707 -5.825,-33.462 -14.095,-67.35 -24.817,-101.685 l -0.243,-0.798 -0.474,-0.996 c -0.032,-1.472 0.712,-2.731 2.22,-3.754 1.501,-1.022 3.171,-1.542 5.01,-1.569 1.98,-0.025 3.512,0.555 4.607,1.753 2.02,2.112 3.55,6.455 4.598,13.018 1.852,9.361 3.263,15.578 4.245,18.662 l 22.606,-3.322 0.828,-4.223 c 1.34,-9.671 1.979,-16.513 1.9,-20.549 -0.049,-2.541 0.764,-4.3 2.419,-5.256 1.668,-0.955 4.251,-1.467 7.761,-1.501 m -90.289,73.662 0.022,0.415 0.2,4.222 c -0.058,2.137 0.082,6.707 0.406,13.678 0.132,6.151 0.39,13.197 0.758,21.106 l 0.541,11.454 c 1.672,-0.061 2.509,-0.152 2.497,-0.294 1.987,-0.058 3.798,-0.522 5.439,-1.38 1.492,-0.728 2.593,-1.612 3.31,-2.642 0.716,-1.019 1.268,-2.355 1.649,-3.965 0.354,-2.167 0.444,-5.198 0.26,-9.07 -0.999,-21.448 -6.03,-32.615 -15.082,-33.524 m -9.397,-73.555 c 1.981,-0.059 3.758,0.458 5.343,1.53 1.572,1.094 2.402,2.442 2.478,4.046 0.243,5.224 0.232,11.603 -0.022,19.114 l -0.165,6.258 0.143,12.868 1.005,21.513 c 3.241,0.693 5.87,1.491 7.901,2.348 4.973,1.833 8.575,3.871 10.825,6.083 1.594,1.552 2.842,2.882 3.733,3.992 0.896,1.109 1.61,2.533 2.148,4.26 1.367,3.175 2.301,6.695 2.787,10.57 0.294,3.077 0.565,7.289 0.82,12.656 0.351,7.505 -0.871,14.037 -3.667,19.661 -1.532,3.126 -3.862,5.581 -6.977,7.374 -3.129,1.782 -6.828,2.742 -11.092,2.9 l -10.066,0.347 c -1.525,0.052 -2.856,-0.625 -3.989,-1.987 -1.138,-1.384 -1.973,-2.984 -2.516,-4.832 1.006,-4.614 1.325,-10.859 0.951,-18.768 -0.167,-3.611 -0.401,-6.906 -0.684,-9.842 l -0.664,-9.231 c -0.415,-8.988 -1.457,-14.723 -3.1,-17.213 l -0.027,-0.6 c -0.07,-1.483 0.318,-3.169 1.145,-5.082 -0.308,-6.567 -0.738,-12.513 -1.301,-17.862 l -1.288,-17.883 c -0.589,-12.599 -0.064,-22.464 1.595,-29.645 z"
             style="fill:#273583;fill-opacity:1;fill-rule:nonzero;stroke:none"
             id="path22"
             inkscape:connector-curvature="0" /></g><g
           id="g24"
           transform="translate(1028.75,342.3564)"><path
             d="m 0,0 c -1.221,0.759 -1.813,2.01 -1.797,3.754 l 0.241,24.482 c -2.112,1.146 -6.101,2.182 -11.975,3.108 -5.865,0.926 -11.41,1.546 -16.627,1.846 -1.826,-2.593 -3.16,-5.765 -4.018,-9.493 l -1.016,-3.726 c -0.174,-0.874 -0.683,-2.794 -1.526,-5.782 -0.85,-2.981 -1.763,-5.56 -2.772,-7.732 -1.001,-2.164 -1.996,-3.875 -2.988,-5.103 -6.198,0.061 -9.786,1.334 -10.732,3.841 1.812,1.976 3.91,7.812 6.287,17.503 l 8.418,34.124 c 3.752,16.154 7.191,29.947 10.331,41.389 3.133,11.427 6.446,20.987 9.958,28.682 3.834,8.559 7.469,12.818 10.896,12.784 3.426,-0.033 6.035,-0.557 7.826,-1.571 C 0.456,133.117 1.89,121.087 4.805,101.992 7.882,83.273 9.39,70.487 9.322,63.635 9.258,57.031 10.061,47.558 11.739,35.208 13.241,22.604 13.964,12.573 13.891,5.094 13.849,0.859 11.14,-1.234 5.747,-1.182 3.134,-1.155 1.221,-0.76 0,0 m -1.692,39.635 c -0.436,5.492 -1.182,12.285 -2.247,20.394 -3.473,28.196 -5.186,45.467 -5.124,51.822 l 0.015,1.494 c -1.647,-1.237 -3.942,-6.845 -6.903,-16.847 -2.953,-10.002 -5.706,-20.724 -8.275,-32.155 -2.56,-11.441 -3.937,-19.028 -4.14,-22.762 6.839,-1.561 14.098,-2.381 21.773,-2.456 1.303,-0.013 2.94,0.16 4.901,0.51"
             style="fill:#273583;fill-opacity:1;fill-rule:nonzero;stroke:none"
             id="path26"
             inkscape:connector-curvature="0" /></g><g
           id="g28"
           transform="translate(1079.6152,340.4512)"><path
             d="m 0,0 c -1.706,1.202 -2.547,2.606 -2.53,4.229 0.01,1.125 0.347,2.488 1.019,4.104 0.506,1.738 0.768,3.042 0.777,3.917 0.109,11.087 -0.502,32.4 -1.827,63.934 -1.361,26.929 -1.964,48.174 -1.811,63.752 0.011,1.117 0.584,2.017 1.735,2.685 1.152,0.675 2.541,1.009 4.175,0.993 1.958,-0.02 3.671,-0.565 5.129,-1.643 1.458,-1.072 2.176,-2.354 2.161,-3.848 -0.074,-7.479 0.305,-18.692 1.137,-33.652 0.658,-16.582 0.954,-27.793 0.896,-33.651 l 0.219,-2.243 -0.021,-2.242 -0.014,-1.313 -0.009,-0.928 c 0.383,-10.85 0.472,-27.049 0.26,-48.604 L 11.248,10.638 30.106,10.452 C 33.507,8.547 35.205,6.666 35.188,4.794 35.174,3.42 34.556,2.219 33.317,1.167 32.079,0.122 30.647,-0.392 29.021,-0.376 28.523,-0.371 27.628,-0.234 26.328,0.021 L 25.351,0.219 C 24.371,0.1 22.818,0.055 20.694,0.076 L 16.529,0.117 C 15.386,0.257 14.084,0.329 12.615,0.344 10.967,-1.134 8.678,-1.859 5.74,-1.83 3.616,-1.809 1.706,-1.201 0,0"
             style="fill:#273583;fill-opacity:1;fill-rule:nonzero;stroke:none"
             id="path30"
             inkscape:connector-curvature="0" /></g><g
           id="g32"
           transform="translate(1144.3965,339.8242)"><path
             d="m 0,0 c -1.697,1.201 -2.547,2.606 -2.53,4.229 0.01,1.125 0.347,2.488 1.027,4.103 0.507,1.739 0.76,3.042 0.769,3.918 0.109,11.087 -0.502,32.4 -1.819,63.934 -1.369,26.928 -1.973,48.174 -1.819,63.752 0.011,1.116 0.584,2.017 1.735,2.685 1.152,0.675 2.541,1.008 4.175,0.992 1.958,-0.019 3.671,-0.564 5.129,-1.643 1.458,-1.071 2.175,-2.353 2.16,-3.848 -0.073,-7.479 0.306,-18.691 1.147,-33.652 0.649,-16.581 0.945,-27.793 0.887,-33.65 l 0.228,-2.244 -0.023,-2.241 -0.012,-1.314 -0.01,-0.927 C 11.419,53.243 11.508,37.045 11.296,15.49 L 11.248,10.638 30.106,10.451 C 33.515,8.546 35.214,6.665 35.195,4.793 35.182,3.42 34.556,2.219 33.326,1.166 32.088,0.122 30.646,-0.393 29.021,-0.376 28.523,-0.371 27.628,-0.234 26.328,0.02 L 25.351,0.218 C 24.37,0.1 22.818,0.055 20.694,0.075 L 16.538,0.116 C 15.386,0.256 14.084,0.329 12.615,0.344 10.966,-1.135 8.678,-1.859 5.74,-1.83 3.616,-1.81 1.706,-1.202 0,0"
             style="fill:#273583;fill-opacity:1;fill-rule:nonzero;stroke:none"
             id="path34"
             inkscape:connector-curvature="0" /></g><g
           id="g36"
           transform="translate(1207.2168,339.29)"><path
             d="m 0,0 c -2.773,0.646 -4.142,2.411 -4.113,5.271 l 1.069,108.574 c 0.021,2.113 -0.437,5.302 -1.375,9.546 -1.107,3.868 -1.648,7.051 -1.623,9.549 l 0.005,0.559 c 2.813,3.459 4.868,5.681 6.189,6.671 2.29,-0.022 5.304,0.19 9.076,0.651 3.431,0.464 6.454,0.691 9.059,0.665 2.613,-0.026 5.138,-0.647 7.574,-1.856 2.436,-1.209 3.65,-2.617 3.634,-4.239 -0.037,-3.736 -3.813,-5.563 -11.322,-5.49 l -3.427,0.034 c -0.977,0.13 -2.122,0.202 -3.425,0.215 -1.467,0.015 -2.365,-0.037 -2.698,-0.154 -0.041,-4.242 0.24,-9.355 0.828,-15.338 L 9.89,109.422 10.286,99.138 C 10.263,96.769 9.97,93.164 9.441,88.308 L 8.849,77.845 12.28,78.377 c 3.269,0.708 5.969,1.059 8.092,1.038 1.793,-0.019 3.422,-0.562 4.88,-1.634 1.458,-1.078 2.185,-2.301 2.171,-3.667 C 27.408,72.62 26.781,71.283 25.55,70.11 24.311,68.938 22.794,68.363 20.994,68.381 l -2.927,0.218 -3.186,0.031 C 12.434,68.654 10.712,68.233 9.716,67.375 L 9.147,9.632 22.876,10.055 C 32.177,9.964 36.814,8.295 36.783,5.058 L 36.775,4.311 C 35.782,2.825 33.97,1.628 31.347,0.718 28.732,-0.192 26.196,-0.756 23.746,-0.98 L 15.655,-1.09 8.072,-1.016 C 4.969,-0.984 2.275,-0.648 0,0"
             style="fill:#273583;fill-opacity:1;fill-rule:nonzero;stroke:none"
             id="path38"
             inkscape:connector-curvature="0" /></g><g
           id="g40"
           transform="translate(795.6299,353.0059)"><path
             d="m 0,0 c -0.128,11.82 -0.912,30.717 -2.354,56.678 -1.45,25.972 -2.678,39.66 -3.694,41.074 -0.03,2.849 1.164,5.061 3.592,6.615 0.882,0.516 2.119,0.963 3.728,1.331 1.594,0.379 3.068,0.57 4.399,0.584 0.669,0.111 2.047,0.177 4.161,0.2 2.54,0.028 4.376,-0.335 5.497,-1.086 1.106,-0.753 1.677,-2.099 1.697,-4.03 0.012,-1.125 -0.422,-1.966 -1.303,-2.533 -0.881,-0.577 -1.984,-0.868 -3.315,-0.882 L 10.745,98.087 8.414,98.063 C 5.316,98.029 3.766,97.455 3.777,96.33 3.835,91.034 4.305,84.111 5.163,75.561 5.909,68.435 6.426,61.667 6.722,55.248 c 0.763,0.215 2.236,0.561 4.384,1.049 2.165,0.467 3.792,0.722 4.906,0.734 1.217,0.013 2.271,-0.461 3.17,-1.422 0.897,-0.961 1.352,-2.05 1.366,-3.268 0.015,-1.425 -0.692,-2.454 -2.129,-3.079 -0.225,-0.106 -0.738,-0.338 -1.573,-0.709 -0.827,-0.36 -1.907,-0.599 -3.228,-0.716 C 12.619,47.723 10.959,47.55 8.63,47.318 L 6.807,47.299 C 6.873,41.188 7.511,32.893 8.737,22.406 9.848,11.422 10.438,3.117 10.498,-2.489 L 10.335,-3.1 10.177,-3.401 C 10.294,-3.813 10.35,-4.473 10.359,-5.392 10.374,-6.713 9.894,-7.761 8.901,-8.546 7.917,-9.311 6.582,-9.707 4.921,-9.725 1.71,-9.76 0.07,-6.524 0,0"
             style="fill:#273583;fill-opacity:1;fill-rule:nonzero;stroke:none"
             id="path42"
             inkscape:connector-curvature="0" /></g><g
           id="g44"
           transform="translate(846.9805,349.4307)"><path
             d="m 0,0 c -4.384,5.559 -7.507,12.401 -9.37,20.538 -2.085,8.64 -3.468,17.897 -4.123,27.771 -0.653,8.955 -1.032,18.686 -1.146,29.175 l -0.136,12.688 c 0.075,3.563 0.082,7.342 0.04,11.316 -0.897,0.796 -1.343,1.813 -1.357,3.042 -0.012,1.218 0.468,2.318 1.457,3.299 0.99,0.981 2.09,1.468 3.308,1.481 3.993,0.043 6.024,-3.549 6.102,-10.786 0.051,-4.687 0.42,-13.541 1.118,-26.574 0.697,-13.043 1.067,-21.897 1.117,-26.585 0.571,-1.325 1.132,-3.963 1.667,-7.931 0.543,-3.97 0.828,-7.229 0.855,-9.769 0.025,-2.251 0.442,-5.013 1.252,-8.318 0.81,-3.306 1.951,-6.628 3.44,-9.979 1.473,-3.546 3.392,-6.457 5.74,-8.724 2.356,-2.267 4.805,-3.386 7.346,-3.359 1.564,0.017 2.858,0.486 3.897,1.415 1.047,0.93 1.727,2.259 2.038,3.997 0.639,2.857 0.94,5.668 0.91,8.414 l -0.321,29.805 c -0.041,3.768 -0.488,8.554 -1.316,14.347 -0.74,6.414 -1.122,11.253 -1.158,14.514 l -0.011,1.075 c -0.018,1.62 -0.09,3.096 -0.209,4.426 l -0.225,4.428 c -0.031,2.859 -0.239,7.183 -0.633,12.981 -0.499,5.198 -0.772,9.573 -0.81,13.145 -0.013,1.115 0.614,2.082 1.888,2.912 1.257,0.829 2.664,1.257 4.222,1.274 l 4.191,-3.466 0.029,-2.601 c 0.012,-1.229 -0.189,-2.707 -0.622,-4.447 -0.405,-2.854 -0.614,-4.487 -0.609,-4.89 0.1,-9.27 0.794,-22.055 2.075,-38.344 1.185,-17.096 1.829,-30.387 1.93,-39.864 0.056,-5.1 -0.453,-9.587 -1.524,-13.469 -0.636,-2.351 -1.528,-4.25 -2.674,-5.688 -1.146,-1.436 -2.714,-2.672 -4.703,-3.716 -1.868,-1.032 -4.308,-1.574 -7.3,-1.606 C 9.503,-8.147 4.044,-5.449 0,0 m -7.485,115.928 c -1.174,1.113 -1.777,2.366 -1.792,3.801 -0.017,1.528 0.606,2.887 1.868,4.068 1.262,1.18 2.723,1.795 4.393,1.812 1.549,0.017 2.911,-0.567 4.093,-1.721 1.174,-1.154 1.769,-2.449 1.784,-3.873 0.018,-1.631 -0.581,-2.99 -1.788,-4.077 -1.214,-1.077 -2.749,-1.63 -4.636,-1.65 -1.444,-0.016 -2.749,0.527 -3.922,1.64 m 26.772,-0.475 c -1.174,1.102 -1.768,2.376 -1.783,3.801 -0.017,1.528 0.605,2.887 1.859,4.067 1.262,1.191 2.732,1.785 4.394,1.803 1.549,0.017 2.934,-0.547 4.173,-1.71 1.23,-1.154 1.849,-2.448 1.865,-3.873 0.017,-1.641 -0.606,-2.98 -1.86,-4.067 -1.271,-1.088 -2.838,-1.641 -4.726,-1.662 -1.443,-0.015 -2.74,0.528 -3.922,1.641"
             style="fill:#273583;fill-opacity:1;fill-rule:nonzero;stroke:none"
             id="path46"
             inkscape:connector-curvature="0" /></g><g
           id="g48"
           transform="translate(924.2461,347.3652)"><path
             d="m 0,0 -0.005,0.454 c -0.389,5.396 -1.454,11.394 -3.179,18.003 -1.741,6.6 -4.271,14.574 -7.583,23.913 -2.511,7.004 -4.629,13.3 -6.351,18.888 l 0.649,-60.217 c 0.018,-1.632 -0.276,-2.832 -0.873,-3.593 -0.604,-0.77 -1.803,-1.176 -3.568,-1.194 -1.331,-0.015 -2.385,0.366 -3.167,1.122 -0.79,0.745 -1.181,1.742 -1.194,2.961 l -0.013,1.218 -0.153,44.942 c 0.075,13.237 0.027,28.166 -0.153,44.777 l -0.202,18.799 c -0.013,1.219 0.252,2.057 0.804,2.528 0.544,0.46 1.711,0.71 3.485,0.73 2.767,0.029 5.321,-0.429 7.654,-1.374 2.342,-0.945 4.349,-2.276 6.037,-3.982 3.467,-3.535 5.74,-7.795 6.786,-12.771 0.458,-2.039 0.709,-4.37 0.737,-7.023 0.017,-1.528 -0.103,-3.202 -0.357,-5.043 C -0.9,81.298 -1.081,80.119 -1.189,79.611 -1.404,78.598 -1.888,77.054 -2.632,75.012 -3.393,72.96 -3.878,71.643 -4.09,71.021 L -6.036,66.726 -7.654,62.733 C -7.51,59.06 -6.767,54.441 -5.432,48.85 -4.097,43.258 -2.629,38.08 -1.021,33.307 0.112,29.953 2.174,24.369 5.138,16.564 L 10.106,3.165 10.109,2.855 C 10.129,1.121 9.983,-0.357 9.657,-1.579 9.345,-3.214 8.191,-4.042 6.191,-4.063 4.086,-4.086 2.022,-2.735 0,0 m -11.94,74.147 2.35,13.169 c 0.108,0.508 0.156,1.231 0.147,2.149 -0.032,2.953 -0.682,6.353 -1.942,10.222 -0.68,1.82 -1.56,3.359 -2.632,4.628 -1.061,1.258 -2.15,1.938 -3.256,2.03 l -0.165,-15.293 c -0.266,-6.827 -0.371,-12.136 -0.33,-15.894 0.039,-3.571 0.113,-5.914 0.238,-7.028 1.533,1.441 3.407,3.454 5.59,6.017"
             style="fill:#273583;fill-opacity:1;fill-rule:nonzero;stroke:none"
             id="path50"
             inkscape:connector-curvature="0" /></g><g
           id="g52"
           transform="translate(387.0869,414.0928)"><path
             d="m 0,0 c -0.556,8.231 -1.23,15.849 -2.008,22.839 l -2.076,23.862 0.34,1.846 0.395,1.033 C -0.721,49.708 1.512,49.244 3.375,48.197 5.23,47.14 6.613,45.544 7.53,43.433 9.028,39.716 9.92,35.704 10.221,31.384 10.599,25.713 9.812,19.472 7.868,12.693 5.923,5.883 3.298,1.654 0,0 m 33.998,-79.711 c 1.542,0.097 2.746,0.655 3.613,1.721 0.851,1.053 1.245,2.261 1.145,3.614 -0.108,1.615 -1.026,3.727 -2.76,6.355 l -1.539,2.366 c -3.306,5.092 -6.177,10.843 -8.624,17.232 -2.437,6.356 -5.109,14.69 -7.959,24.957 l -4.222,14.205 -1.48,4.805 3.288,6.249 3.92,7.522 c 0.821,1.659 1.532,3.834 2.125,6.515 0.586,2.648 0.817,4.999 0.686,7.032 L 21.242,37.03 c -0.455,6.726 -3.485,11.863 -9.074,15.365 -5.589,3.501 -12.557,5.039 -20.904,4.632 -5.106,-0.268 -7.431,-3.65 -7.007,-10.112 0.71,-10.53 2.574,-28.908 5.599,-55.155 3.06,-24.622 4.995,-43.011 5.812,-55.145 l 0.69,-13.573 3.214,-2.873 6.49,0.333 2.187,5.591 c -3.621,9.972 -6.041,23.987 -7.261,42.079 l -0.756,11.122 c -0.066,3.242 -0.219,6.825 -0.497,10.738 l 2.785,0.139 c 1.42,-2.628 5.025,-13.491 10.813,-32.544 l 2.076,-6.795 c 2.059,-7.354 4.937,-14.458 8.657,-21.287 3.225,-6.335 6.533,-9.416 9.932,-9.256 m -95.948,-3.171 19.738,0.622 c 2.785,0.085 5.114,0.664 7.027,1.728 1.882,1.086 2.789,2.568 2.713,4.447 -0.138,3.253 -3.141,4.785 -9.018,4.595 -3.72,-0.105 -6.884,-0.288 -9.511,-0.493 l -7.655,-0.441 c -0.315,-0.011 -0.617,3.748 -0.929,11.332 -0.168,4.056 -0.184,10.199 -0.062,18.452 -0.08,5.408 -0.245,11.496 -0.52,18.244 -0.266,6.749 -0.645,11.881 -1.096,15.376 l 5.798,0.202 c 1.573,-0.245 3.736,-0.302 6.529,-0.218 2.156,0.063 3.927,0.622 5.265,1.685 1.355,1.065 2.009,2.329 1.948,3.812 -0.16,3.769 -3.957,5.555 -11.384,5.323 -1.864,-0.053 -3.406,-0.172 -4.642,-0.346 l -3.705,-0.313 -0.83,3.221 c -0.122,3.231 -0.099,8.11 0.098,14.605 -0.018,4.33 -0.146,9.199 -0.366,14.595 -0.153,3.781 -0.345,6.683 -0.587,8.694 5.286,-0.501 11.224,-1.674 17.806,-3.507 1.834,0.745 3.377,1.699 4.653,2.906 1.261,1.174 1.868,2.448 1.815,3.8 -0.092,2.429 -3.551,4.423 -10.345,5.97 -6.819,1.548 -12.765,2.237 -17.879,2.079 -6.498,-0.2 -9.557,-5.098 -9.161,-14.681 0.085,-1.759 0.419,-4.606 1.051,-8.497 0.617,-3.76 0.975,-6.606 1.043,-8.486 0.336,-7.968 0.426,-17.847 0.292,-29.607 0.077,-13.122 0.245,-22.981 0.519,-29.597 l 0.99,-12.958 c 0.716,-5.781 1.112,-10.101 1.242,-12.936 0.069,-1.627 0.2,-3.045 0.404,-4.254 l 0.167,-4.056 0.221,-5.265 c 0.218,-1.747 1.168,-3.21 2.85,-4.366 1.666,-1.167 3.514,-1.719 5.521,-1.667 m -70.213,-0.995 c 3.563,0.028 6.713,2.288 9.457,6.768 2.735,4.48 4.907,10.643 6.53,18.499 2.479,12.986 4.269,27.667 5.313,44.04 0.545,7.307 1.157,12.648 1.799,16.032 0.673,3.384 2.033,8.448 4.134,15.238 2.536,7.854 4.441,14.589 5.699,20.214 1.251,5.614 1.863,10.866 1.807,15.724 -0.014,1.219 -0.572,2.264 -1.664,3.134 -1.093,0.859 -2.335,1.3 -3.727,1.28 l -5.106,-0.027 c -1.616,-8.8 -4.376,-25.259 -8.293,-49.344 -4.797,-28.139 -8.743,-49.674 -11.823,-64.55 -0.501,2.143 -1.078,5.716 -1.748,10.728 l -2.981,18.005 -1.484,7.904 c -2.812,15.918 -5.195,27.735 -7.128,35.419 -2.106,8.091 -4.048,14.864 -5.803,20.328 -1.763,5.464 -3.677,9.797 -5.726,13.02 -2.049,3.376 -4.233,5.049 -6.562,5.03 -1.385,-0.02 -2.659,-0.502 -3.809,-1.467 -1.15,-0.954 -1.718,-2.02 -1.704,-3.24 0.021,-2.033 1.462,-6.826 4.339,-14.369 1.106,-2.815 1.835,-4.915 2.164,-6.267 7.378,-23.991 12.827,-44.284 16.353,-60.895 3.51,-16.589 5.346,-32.669 5.53,-48.198 z m -70.185,2.048 c 1.085,-0.024 3.879,0.446 8.411,1.429 2.246,3.063 4.514,16.732 6.765,41.016 2.258,24.285 3.853,46.834 4.77,67.626 l 0.444,15.198 c 0.066,2.297 -0.459,4.188 -1.573,5.717 -1.123,1.508 -2.759,2.301 -4.93,2.348 -3.713,0.081 -5.627,-1.905 -5.75,-5.949 -0.025,-0.945 0.028,-1.836 0.161,-2.649 l -0.082,-2.637 c -1.153,-39.596 -3.716,-73.87 -7.648,-102.845 -1.724,4.75 -4.208,12.666 -7.45,23.693 l -2.099,7.355 c -5.216,17.822 -9.422,31.564 -12.627,41.24 -3.205,9.664 -6.843,18.878 -10.922,27.632 -5.107,10.908 -9.442,16.42 -12.998,16.513 -0.314,0 -0.928,-0.12 -1.865,-0.371 l 0.033,1.23 c -5.684,-3.531 -8.617,-8.472 -8.799,-14.824 -0.123,-4.056 -0.533,-10.33 -1.244,-18.835 -0.711,-8.231 -1.128,-14.495 -1.244,-18.825 -0.387,-12.846 -0.646,-24.451 -0.793,-34.87 l -0.785,-34.65 c -0.239,-8.242 2.115,-12.41 7.071,-12.537 2.014,-0.047 3.738,0.533 5.155,1.719 1.433,1.173 2.175,2.645 2.232,4.403 0.017,0.681 -0.195,1.363 -0.642,2.045 -0.44,0.682 -0.738,1.155 -0.887,1.43 l -0.879,1.452 2.974,101.939 c 5.671,-12.57 13.434,-31.944 23.28,-58.124 9.846,-26.169 14.704,-41.506 14.572,-45.946 l -0.017,-0.615 -0.016,-0.396 1.285,-3.903 c 0.406,-2.177 1.049,-3.705 1.953,-4.608 0.911,-0.891 2.287,-1.365 4.144,-1.401 m -122.492,1.744 c 19.948,-0.972 31.827,28.477 35.658,88.389 0.04,0.681 0.002,1.297 -0.115,1.846 l 0.104,1.616 1.01,8.483 c 0.46,2.417 0.794,5.175 0.995,8.263 0.176,2.846 0.7,6.197 1.579,10.075 0.761,4.714 1.214,8.142 1.35,10.296 0.145,2.297 0.163,3.846 0.062,4.671 -0.227,1.363 -0.878,2.584 -1.978,3.651 -1.092,1.067 -2.649,1.641 -4.655,1.743 -2.47,0.124 -4.162,-0.171 -5.051,-0.862 -0.906,-0.713 -1.403,-1.855 -1.508,-3.482 -0.048,-0.681 -10e-4,-1.23 0.124,-1.626 l -0.112,-1.824 -0.724,-11.341 c -4.642,-72.583 -12.525,-108.63 -23.656,-108.087 -9.746,0.485 -14.294,5.722 -13.66,15.711 0.209,3.231 0.125,10.407 -0.247,21.518 -0.515,8.98 -0.6,16.146 -0.254,21.541 l 3.518,55.055 c 0.177,2.846 -0.386,5.506 -1.704,8.003 -1.311,2.496 -2.891,3.795 -4.755,3.885 -1.849,0.091 -3.565,-1.248 -5.142,-4.015 -0.064,-1.077 -0.116,-4.187 -0.13,-9.32 -0.113,-1.9 -0.123,-3.252 -0.022,-4.065 l -0.767,-15.605 c -1.342,-21.044 -2.247,-38.869 -2.722,-53.462 -0.546,-8.638 -0.478,-16.078 0.214,-22.343 0.62,-7.211 2.602,-13.731 5.953,-19.581 1.688,-2.805 3.943,-4.962 6.797,-6.527 2.845,-1.552 6.125,-2.436 9.838,-2.606"
             style="fill:#273583;fill-opacity:1;fill-rule:nonzero;stroke:none"
             id="path54"
             inkscape:connector-curvature="0" /></g></g></g></g></g></svg>
