<svg xmlns="http://www.w3.org/2000/svg" xmlns:xlink="http://www.w3.org/1999/xlink" viewBox="0 0 306.52 306.53"><defs><style>.cls-1,.cls-5{fill:none;}.cls-2{clip-path:url(#clip-path);}.cls-3{fill:#938fc0;}.cls-4{fill:#272a5b;}.cls-5{stroke:#938fc0;stroke-miterlimit:10;stroke-width:9px;}</style><clipPath id="clip-path"><polygon class="cls-1" points="10.1 297.96 295.1 295.96 295.1 10.96 10.1 8.96 10.1 297.96"/></clipPath></defs><g id="Ebene_2" data-name="Ebene 2"><g id="Ebene_1-2" data-name="Ebene 1"><g class="cls-2"><path class="cls-3" d="M31.94,70a8.94,8.94,0,0,1-2.85-2,9.73,9.73,0,0,1-1.74-3,20.19,20.19,0,0,1-1.17-3.79,24.63,24.63,0,0,1-.58-4c-.15-1.75-.25-3.26-.3-4.52V45.57q0-4.22.15-6.92a40.47,40.47,0,0,1,.95-6.93A16.44,16.44,0,0,1,28.66,26,7.87,7.87,0,0,1,33,22.54,8.38,8.38,0,0,1,36,22c2.09,0,3.13.61,3.13,1.82a1.71,1.71,0,0,1-.69,1.42,2.54,2.54,0,0,1-1.64.55,4,4,0,0,1-.8-.07,3,3,0,0,0-.73-.08A2.69,2.69,0,0,0,33.1,27a11.74,11.74,0,0,0-1.6,3.64,58.13,58.13,0,0,0-1.6,9.84q-.3,5-.3,7.36c0,1.66.08,3.91.22,6.78a31.06,31.06,0,0,0,1.24,7,10.25,10.25,0,0,0,1.21,2.8,6.07,6.07,0,0,0,1.78,1.79,4.61,4.61,0,0,0,2.55.8q3.49,0,3.5-11.66V52a4.53,4.53,0,0,0-1.68-.22H37q-2.55,0-2.55-1.68a1.86,1.86,0,0,1,.69-1.56A2.74,2.74,0,0,1,36.89,48v.07h1c4.38,0,6.56.76,6.56,2.26a18.56,18.56,0,0,1-.36,2.63,12,12,0,0,0-.44,2.62c0,.83.08,2.11.22,3.86L44,63.29a6.76,6.76,0,0,1-2.44,5.5,9.05,9.05,0,0,1-6,2A8.79,8.79,0,0,1,31.94,70"/><path class="cls-3" d="M60.73,54.17a152.75,152.75,0,0,0-1.17-16.76l-.73-7.58Q55.7,47,54.53,55.7q1.09.73,6.42,1.17a13.73,13.73,0,0,1-.22-2.7m2.55,16.19a2.07,2.07,0,0,1-.8-1.9A63.73,63.73,0,0,0,61.75,61l-.29-1.53-7.22-1.1q-.43,1.68-1.24,6.78-.44,3.57-1.38,4.74a1.73,1.73,0,0,1-1.46.65,2.62,2.62,0,0,1-1.6-.54,1.64,1.64,0,0,1-.73-1.35l.14-.37.08-.29a324.71,324.71,0,0,0,7.28-36.95c0-.19,0-.52.08-1s.09-1.12.14-2c.15-1.8.31-3.23.48-4.3a5.67,5.67,0,0,1,.84-2.41h2.47a3.1,3.1,0,0,1,1.75.48,1.51,1.51,0,0,1,.73,1.35,130,130,0,0,0,1.53,16.47,143.74,143.74,0,0,1,1.46,15.74,17.12,17.12,0,0,0,.36,2.26,13.07,13.07,0,0,1,.37,2.19c0,.34.24,1.8.73,4.37a32.19,32.19,0,0,1,.65,4.52v.07a2,2,0,0,1-1.16,2.05,4.81,4.81,0,0,1-2.48-.51"/><path class="cls-3" d="M91.78,70a3.38,3.38,0,0,1-.66-1.64l-.43-1.38v-.36q0-2.41-5-16.4T77.86,29.46V66.13l.29.51c0,.1.14.27.29.51a1.35,1.35,0,0,1,.22.73,2.25,2.25,0,0,1-2.26,2.26c-1.56,0-2.33-1.48-2.33-4.45L74,53.23q-.08-5.61-.07-12.54,0-2.32.22-6.78t.22-6.78A6.37,6.37,0,0,1,77,21.74v.44a2.31,2.31,0,0,1,.59-.15q1.67,0,4.22,5.83a98.94,98.94,0,0,1,3.68,9.84q1.65,5.17,4.34,14.72l.73,2.63q1.68,5.89,2.55,8.45,1.45-15.66,1.46-37v-.95a5.65,5.65,0,0,1-.07-1q0-2.19,1.74-2.19a1.78,1.78,0,0,1,1.57.81,3.48,3.48,0,0,1,.55,2V30.7q-.15,11.23-.88,24.35t-1.75,14.8a15.5,15.5,0,0,1-2.62.58A1.68,1.68,0,0,1,91.78,70"/><path class="cls-3" d="M107.81,69.88a1.46,1.46,0,0,1-.58-1.2,52.11,52.11,0,0,1,1.71-11.52q1.71-7.14,5-17.64,3.27-10.86,4.08-14a27.75,27.75,0,0,0-2.84.22c-1.32.14-2.36.22-3.14.22a1.77,1.77,0,0,1-1.31-.62,2,2,0,0,1-.59-1.42c0-1.41,2.68-2.12,8-2.12,2.43,0,3.65.68,3.65,2a23.37,23.37,0,0,1-1.61,6.93A37.36,37.36,0,0,0,118.31,37a172.78,172.78,0,0,1-3.79,16.91l-3.21,12.61h1.31l1.53-.14a13.62,13.62,0,0,1,1.53-.08V66.2c1.95,0,2.92.61,2.92,1.82a1.45,1.45,0,0,1-.73,1.28,3.33,3.33,0,0,1-1.82.47c-.78,0-1.48,0-2.11-.07l-2.19-.15a2.93,2.93,0,0,0-1.24.44,4.68,4.68,0,0,1-1.31.37,2.12,2.12,0,0,1-1.39-.48"/><path class="cls-3" d="M139.74,58.18l.07-4.15.07-3.35v-1a11,11,0,0,0,.08-1.39.63.63,0,0,0-.22-.36.59.59,0,0,1-.22-.37v-.07a3.88,3.88,0,0,1-1.31.15,12,12,0,0,1-2.34-.29L133.54,47v8.38q0,1.91.22,6t.22,6a3.16,3.16,0,0,1-.58,1.89,1.8,1.8,0,0,1-1.53.8c-.93,0-1.58-.9-2-2.69a36.08,36.08,0,0,1-.59-7.22l.15-5.9c0-1.65.07-3.4.07-5.25V46.74a9.77,9.77,0,0,0-.07-1.53v-.37l.22-4.22q0-2.77-.22-8.24t-.22-8.24a2.28,2.28,0,0,1,.58-1.53,1.9,1.9,0,0,1,1.46-.65c1.56,0,2.33,1.45,2.33,4.37l-.14,9q-.15,4.08-.15,9.11a14.47,14.47,0,0,0,3.94.36H140a2.93,2.93,0,0,0,.14-.87c0-2.33-.14-5.78-.44-10.35q-.51-6.42-.51-10.42a1.73,1.73,0,0,1,.62-1.35,2.19,2.19,0,0,1,1.5-.55,4.38,4.38,0,0,1,1.46.37l.65.29q0,10.35.73,27.62L144.77,68a1.92,1.92,0,0,1-.77,1.61,2.84,2.84,0,0,1-1.78.58q-2.49,0-2.48-12"/><path class="cls-3" d="M155.15,70.5a2.29,2.29,0,0,1-.84-1.6V65.55c0-.44-.07-1-.07-1.54,0-1-.07-2.57-.22-4.66l-.14-4.67c0-2.38.07-5.92.22-10.64q.28-6.33.29-10.64c0-.68-.08-1.7-.22-3.06s-.22-2.43-.22-3.06q0-5.18,3.06-5.18a20,20,0,0,1,5.58.95c2.11.63,3.17,1.39,3.17,2.26a1.88,1.88,0,0,1-.62,1.35,4.59,4.59,0,0,1-1.5,1,28.88,28.88,0,0,0-5.54-1.45c.05.72.08,1.77.08,3.13,0,1.94,0,3.69-.08,5.25q-.21,3.49-.21,5.25L158.1,41l1.17-.07a12,12,0,0,1,1.46-.07c2.33,0,3.5.68,3.5,2a1.7,1.7,0,0,1-.66,1.35,2.57,2.57,0,0,1-1.68.54,11.83,11.83,0,0,1-2-.14H158c.1,1.26.15,3.11.15,5.54s0,4.61-.08,6.56q-.21,4.44-.21,6.63a21.66,21.66,0,0,0,.14,4.08l2.41-.07c.82-.05,1.82-.08,3-.08,1.84,0,2.77.59,2.77,1.75a1.73,1.73,0,0,1-.92,1.57,4.15,4.15,0,0,1-2.22.55h-6.19a2.56,2.56,0,0,1-1.72-.66"/><path class="cls-3" d="M171.52,68c0-1.17.75-1.75,2.26-1.75h.8l.73.07a.87.87,0,0,0,.8-.36,2.82,2.82,0,0,0,.22-1.31q0-1.24-.15-3.87c-.14-1.16-.32-3.25-.51-6.26Q175,43.31,175,37.63c0-1.36,0-2.6.08-3.72l.07-3.72a29.82,29.82,0,0,0-.22-4,7.8,7.8,0,0,1-1.68.3,1.55,1.55,0,0,1-1.74-1.75,1.82,1.82,0,0,1,1.09-1.53,7.9,7.9,0,0,1,2.77-.95,26.59,26.59,0,0,1,5.17-.58,2.05,2.05,0,0,1,1.5.61,2,2,0,0,1,.62,1.43,2.11,2.11,0,0,1-.48,1.38,1.46,1.46,0,0,1-1.2.58,3.06,3.06,0,0,1-.73-.07h-.58a1.45,1.45,0,0,0-1.06.33,1.69,1.69,0,0,0-.33,1.2q0,7.08.88,21.29c.1,1.74.29,4.32.58,7.72a64.2,64.2,0,0,1,.37,6.85v2.77a11.49,11.49,0,0,1,1.45-.07c2,0,3.07.85,3.07,2.55v.44l-1.83,1.24-.47,0c-.27,0-.77,0-1.49,0-1.56.1-2.56.15-3,.15q-6.35,0-6.34-2.19"/><path class="cls-3" d="M194.77,69l-.08-2.84c0-.82-.07-1.75-.07-2.77l.07-2.48q-.21-.8-1.09-16t-1-19.46q-4.23-.15-5.39-.88a1.6,1.6,0,0,1-.8-1.31,1.28,1.28,0,0,1,.76-1.05,2.91,2.91,0,0,1,1.57-.48c1.36,0,3,.1,4.95.29a37.33,37.33,0,0,0,5,.37h1.17c1.5,0,2.26.58,2.26,1.75a1.72,1.72,0,0,1-.73,1.42,2.77,2.77,0,0,1-1.68.55,12.4,12.4,0,0,1-1.89-.22l-1.46-.3-.07.37-.08.36q0,6.5,1.24,20.7,1.17,13.35,1.17,20.7a2,2,0,0,1-.77,1.53,2.55,2.55,0,0,1-1.71.66Z"/><path class="cls-3" d="M214.08,70.5a4.56,4.56,0,0,1-2.48.73,1.85,1.85,0,0,1-1.49-.76,2.6,2.6,0,0,1-.62-1.64q0-6.14.51-16.33.44-10.86.44-16.26v-.51q-.44-4.59-.44-6.85Q210,22,212.55,22a1.84,1.84,0,0,1,1.82,1.82c0,.58-.07,1.51-.21,2.77a24.4,24.4,0,0,0-.22,2.77q0,4.89.07,8.82c.05,2.58.07,5.49.07,8.75a10.17,10.17,0,0,0-.36,3.06v.87l-.15,5.76c-.1,1.7-.14,3.64-.14,5.83q0,5,2.4,5a3.74,3.74,0,0,0,.48,0c.21,0,.52,0,.91,0a14.88,14.88,0,0,1,1.67-.08q3.95,0,3.94,2.19a1.52,1.52,0,0,1-.66,1.24,3.4,3.4,0,0,1-1.6.66,20.52,20.52,0,0,0-6.49-.88"/><path class="cls-3" d="M226.18,68c0-1.17.75-1.75,2.26-1.75h.8l.73.07a.85.85,0,0,0,.8-.36A2.7,2.7,0,0,0,231,64.6c0-.83-.05-2.12-.14-3.87q-.22-1.74-.51-6.26-.66-11.16-.66-16.84c0-1.36,0-2.6.07-3.72l.08-3.72a31.58,31.58,0,0,0-.22-4,7.8,7.8,0,0,1-1.68.3,1.55,1.55,0,0,1-1.75-1.75,1.84,1.84,0,0,1,1.09-1.53,8,8,0,0,1,2.77-.95,26.68,26.68,0,0,1,5.18-.58,2,2,0,0,1,1.49.61,2,2,0,0,1,.62,1.43,2.1,2.1,0,0,1-.47,1.38,1.49,1.49,0,0,1-1.2.58,3,3,0,0,1-.73-.07h-.59a1.44,1.44,0,0,0-1.05.33,1.69,1.69,0,0,0-.33,1.2q0,7.08.87,21.29c.1,1.74.3,4.32.59,7.72a64.22,64.22,0,0,1,.36,6.85v2.77a11.68,11.68,0,0,1,1.46-.07q3.06,0,3.06,2.55v.44l-1.82,1.24L237,70c-.27,0-.77,0-1.5,0-1.55.1-2.55.15-3,.15-4.22,0-6.34-.73-6.34-2.19"/><path class="cls-3" d="M251.73,70.76A10.55,10.55,0,0,1,249,69.7q-4.89-3.14-4.89-17.13v-6c0-1.94,0-3.68.07-5.21s.15-3.19.3-5a29.16,29.16,0,0,1,.65-4.63,23.45,23.45,0,0,1,1.46-4,9,9,0,0,1,2.15-3.28,10.5,10.5,0,0,1,3.32-2,11.12,11.12,0,0,1,4.52-.8,2.47,2.47,0,0,1,1.67.51,1.65,1.65,0,0,1,.59,1.31,2,2,0,0,1-.48,1.31,1.68,1.68,0,0,1-1.13.66h-3.42a3.06,3.06,0,0,0-2.56,1.82A13.21,13.21,0,0,0,249.72,32a52.86,52.86,0,0,0-.94,8.74v.37l-.15,7q-.15,3.14-.15,7.07a38.9,38.9,0,0,0,.22,4.52,14.53,14.53,0,0,0,1.24,4.38,5.39,5.39,0,0,0,3,2.84,6.46,6.46,0,0,0,2.41.44,2.73,2.73,0,0,0,1.6-.59,2.93,2.93,0,0,1,1.57.4,1.35,1.35,0,0,1,.62,1.21q0,2.83-4,2.84a13.47,13.47,0,0,1-3.39-.47"/><path class="cls-3" d="M276,58.18l.07-4.15.07-3.35v-1a11,11,0,0,0,.08-1.39A.63.63,0,0,0,276,48a.59.59,0,0,1-.22-.37v-.07a3.92,3.92,0,0,1-1.31.15,12,12,0,0,1-2.34-.29L269.84,47v8.38q0,1.91.22,6t.22,6a3.16,3.16,0,0,1-.58,1.89,1.8,1.8,0,0,1-1.54.8c-.92,0-1.58-.9-2-2.69a36.08,36.08,0,0,1-.59-7.22l.15-5.9c.05-1.65.07-3.4.07-5.25V46.74a9.77,9.77,0,0,0-.07-1.53v-.37l.22-4.22c0-1.85-.08-4.6-.22-8.24s-.22-6.39-.22-8.24a2.23,2.23,0,0,1,.58-1.53,1.9,1.9,0,0,1,1.46-.65c1.56,0,2.33,1.45,2.33,4.37l-.14,9q-.15,4.08-.15,9.11a14.47,14.47,0,0,0,3.94.36h2.7a2.93,2.93,0,0,0,.14-.87c0-2.33-.14-5.78-.44-10.35q-.51-6.42-.51-10.42a1.73,1.73,0,0,1,.62-1.35,2.17,2.17,0,0,1,1.5-.55,4.28,4.28,0,0,1,1.45.37l.66.29q0,10.35.73,27.62L281.07,68a1.92,1.92,0,0,1-.77,1.61,2.87,2.87,0,0,1-1.79.58q-2.47,0-2.47-12"/><path class="cls-3" d="M64.34,207.56a79.43,79.43,0,0,0-13.73,1.24Q43.5,210,33.23,212.69a17.15,17.15,0,0,0-1.78.52,19.55,19.55,0,0,1-4.1,1,1.23,1.23,0,0,1-.93-.43,1.41,1.41,0,0,1-.4-.95q0-.87,1.44-1.62a17.81,17.81,0,0,1,3.73-1.38c1.55-.43,3.49-.89,5.8-1.39s5.56-1,10.1-1.67l2.25-.35,5.13-.69c1.43-.16,2.45-.29,3.06-.41q-6.35-1.2-18.35-3.11-10.28-1.56-14-2.2v-1.27a1.33,1.33,0,0,1,.38-.92,1.17,1.17,0,0,1,.89-.4,22.2,22.2,0,0,1,4.48.49c1.59.32,3.51.82,5.74,1.47,1.92.54,3.37.89,4.33,1.07s2.48.33,4.56.49a118,118,0,0,1,12.52,1.44,18.32,18.32,0,0,1,5.25,1.67c1.27.7,1.91,1.49,1.91,2.37Z"/><path class="cls-3" d="M64.75,190.39a1.83,1.83,0,0,1-1.27.66H60.82a10.74,10.74,0,0,1-1.21.06c-.81,0-2,.06-3.69.17l-3.7.12q-2.82,0-8.42-.18-5-.22-8.43-.23a23.77,23.77,0,0,0-2.42.18c-1.12.11-1.93.17-2.43.17q-4.1,0-4.1-2.42a15.71,15.71,0,0,1,.75-4.42c.5-1.67,1.1-2.51,1.79-2.51a1.48,1.48,0,0,1,1.07.49,3.57,3.57,0,0,1,.78,1.18,22.94,22.94,0,0,0-1.15,4.39c.57,0,1.4-.06,2.48-.06,1.54,0,2.92,0,4.15.06,1.85.12,3.23.17,4.16.17l.92-.17-.06-.92c0-.31-.05-.7-.05-1.16,0-1.84.54-2.77,1.61-2.77a1.35,1.35,0,0,1,1.07.52,2,2,0,0,1,.43,1.33,9.58,9.58,0,0,1-.11,1.62v1.44q1.5-.12,4.38-.12c1.93,0,3.66,0,5.2.06,2.34.12,4.1.17,5.25.17a17.15,17.15,0,0,0,3.23-.11l-.06-1.91c0-.65,0-1.44,0-2.36,0-1.46.46-2.2,1.38-2.2a1.38,1.38,0,0,1,1.24.73,3.33,3.33,0,0,1,.43,1.76V189a2.07,2.07,0,0,1-.51,1.36"/><path class="cls-3" d="M38.86,170.13a17.91,17.91,0,0,0-5.28-.89,12.47,12.47,0,0,0-3.46.46,2.7,2.7,0,0,0-1.42,1,2.74,2.74,0,0,0-.49,1.65l.29.11.52.12,6.81-.12c2-.08,4.18-.11,6.52-.11-.42-.85-1.58-1.57-3.49-2.17m23.87-2.62a31.64,31.64,0,0,1-6.18,1.78l-2,.41c-5.5,1.11-8.64,1.83-9.41,2.13v.7c1.12,0,2.14,0,3.06.05h3.17a51.79,51.79,0,0,0,12.07-1.09l1.55.63v1.62l-.86.75-3.87-.06q-5.19,0-15.75.52-11.26.47-15.76.46c-1.85,0-2.77-.63-2.77-1.9a7.84,7.84,0,0,1,1.62-5.11,5.45,5.45,0,0,1,4.5-2h4a8.3,8.3,0,0,1,2,.29,9.49,9.49,0,0,1,1.82.63l2.07,1.1,1.74.92,1.38-.29,4.1-.8c3-.54,5.37-1.06,7.21-1.56a28.35,28.35,0,0,0,5-1.85l.7-.35a4.5,4.5,0,0,1,1.84-.57,1.56,1.56,0,0,1,1,.34,1.13,1.13,0,0,1,.44.93c0,.84-.93,1.61-2.77,2.31"/><path class="cls-3" d="M34.68,150.88a14.42,14.42,0,0,0-2.6.18,3.59,3.59,0,0,0-1.13.46,2.31,2.31,0,0,0-.72.86,2.89,2.89,0,0,0-.34,1.39s-.06.21-.06.63h3.29c2.27,0,4.29,0,6.06-.05,2,0,3.31,0,3.92-.06h1.33q-.52-3.4-9.75-3.41M64.92,157a37.44,37.44,0,0,1-8.49.75l-5.13-.11c-1.54-.08-3.25-.12-5.14-.12a3.76,3.76,0,0,1-1.44.35h-.17c-.73-.39-2.39-.58-5-.58l-2.65-.06c-.85,0-1.79-.06-2.83-.06a24.34,24.34,0,0,0-5.37.47,4.07,4.07,0,0,1-1.41-.58,1.16,1.16,0,0,1-.61-1v-2.54a5.44,5.44,0,0,1,.72-2.83,4.78,4.78,0,0,1,2.05-1.85,12.67,12.67,0,0,1,5.6-1.15c1.54,0,2.75,0,3.64.06a13,13,0,0,1,3.06.57,3.82,3.82,0,0,1,1.24.5,14,14,0,0,1,1.18.89,7.67,7.67,0,0,1,1.85,2.65,10.21,10.21,0,0,1,.75,2H53l3.7-.12,1.78-.11c2.16-.16,4-.23,5.49-.23a1.51,1.51,0,0,1,1.18.57,2,2,0,0,1,.49,1.33Z"/><path class="cls-3" d="M51.82,134.67a122.71,122.71,0,0,0-13.28.92l-6,.58q13.56,2.47,20.49,3.4c.38-.57.69-2.27.92-5.08a10.64,10.64,0,0,1-2.13.18m12.81-2a1.65,1.65,0,0,1-1.5.63,50.74,50.74,0,0,0-5.89.58l-1.21.23-.87,5.71c.89.24,2.68.56,5.37,1a8,8,0,0,1,3.75,1.09A1.38,1.38,0,0,1,64.8,143a2.07,2.07,0,0,1-.43,1.27,1.3,1.3,0,0,1-1.07.57l-.29-.11-.23-.06a257,257,0,0,0-29.26-5.77q-.23,0-.78-.06c-.36,0-.89-.08-1.58-.11-1.43-.12-2.56-.24-3.41-.38a4.5,4.5,0,0,1-1.9-.66v-2a2.48,2.48,0,0,1,.37-1.38,1.2,1.2,0,0,1,1.07-.58,102.42,102.42,0,0,0,13-1.21,113,113,0,0,1,12.47-1.15,14,14,0,0,0,1.79-.29,9.88,9.88,0,0,1,1.73-.29c.27,0,1.42-.19,3.46-.58a27.18,27.18,0,0,1,3.58-.52h.06a1.52,1.52,0,0,1,1.61.93,3.75,3.75,0,0,1-.4,2"/><path class="cls-3" d="M65,119.75a8.22,8.22,0,0,1-.84,2.16q-2.47,3.87-13.56,3.87H45.82c-1.54,0-2.92,0-4.13-.06s-2.53-.11-3.95-.23a23,23,0,0,1-3.67-.52,18.54,18.54,0,0,1-3.2-1.15,7.09,7.09,0,0,1-2.6-1.71,8.54,8.54,0,0,1-1.56-2.62,9,9,0,0,1-.63-3.58,2,2,0,0,1,.4-1.33,1.35,1.35,0,0,1,1-.46,1.61,1.61,0,0,1,1,.38,1.3,1.3,0,0,1,.52.89v2.71a2.43,2.43,0,0,0,1.44,2,10.33,10.33,0,0,0,3.75,1.22,42,42,0,0,0,6.93.75h.29l5.54.11c1.65.08,3.52.12,5.6.12a28.63,28.63,0,0,0,3.57-.18,11.27,11.27,0,0,0,3.47-1,4.24,4.24,0,0,0,2.25-2.36,5.15,5.15,0,0,0,.34-1.91,2.16,2.16,0,0,0-.46-1.27,2.26,2.26,0,0,1,.32-1.24,1.05,1.05,0,0,1,1-.49c1.5,0,2.25,1.06,2.25,3.17a10.47,10.47,0,0,1-.37,2.69"/><path class="cls-3" d="M62.61,97.9q-4.34,2.26-14.26,4.45c-1.8.42-3.48.77-5,1a22.34,22.34,0,0,0,10.05,2.08H64.05c.89,0,1.33.38,1.33,1.15a2,2,0,0,1-.49,1.41,1.72,1.72,0,0,1-1.36.55H46.05c-1.7,0-4.81-.19-9.35-.58q-5.94-.57-9.35-.57a1.69,1.69,0,0,1-1.1-1.68,1.72,1.72,0,0,1,.52-1.27A1.76,1.76,0,0,1,28,104h.17q1.27.75,10.51.75h2.07l-4.21-2.13q-4.09-2-7-3.69c-1.92-1.08-2.89-1.87-2.89-2.37a3,3,0,0,1,.41-1.59,1.27,1.27,0,0,1,1.15-.66l2.31,1.38q7,4.34,8.08,4.85c.66,0,1.23,0,1.73.06l1.73.06c1.66,0,4.75-.67,9.27-2a45.09,45.09,0,0,0,9-3.32l1-.75A4.75,4.75,0,0,1,64,93.46a1.36,1.36,0,0,1,1.07.49,1.66,1.66,0,0,1,.44,1.13c0,.88-1,1.82-2.89,2.82"/><path class="cls-3" d="M63.59,85.27l-2.25,0q-1,.06-2.19.06l-2-.06q-.64.18-12.64.87T29.14,87c-.08,2.23-.31,3.65-.7,4.27a1.28,1.28,0,0,1-1,.63,1,1,0,0,1-.84-.6,2.36,2.36,0,0,1-.38-1.24c0-1.08.08-2.39.23-3.93a29.09,29.09,0,0,0,.29-3.92v-.93c0-1.19.46-1.78,1.39-1.78a1.33,1.33,0,0,1,1.12.57,2.17,2.17,0,0,1,.44,1.33,8.92,8.92,0,0,1-.18,1.5l-.23,1.15.29.06.29.06q5.13,0,16.39-1,10.56-.93,16.39-.92a1.55,1.55,0,0,1,1.21.6,2,2,0,0,1,.52,1.36Z"/><path class="cls-3" d="M257,87.54a112.81,112.81,0,0,0,12.32-.85l5.58-.54q-12.6-2.31-19-3.16c-.36.53-.64,2.11-.86,4.71a11,11,0,0,1,2-.16m-11.9,1.88a1.52,1.52,0,0,1,1.39-.59,45.91,45.91,0,0,0,5.47-.54l1.12-.21.81-5.31c-.83-.21-2.49-.52-5-.91a7.3,7.3,0,0,1-3.48-1,1.27,1.27,0,0,1-.48-1.07,1.91,1.91,0,0,1,.4-1.18,1.22,1.22,0,0,1,1-.53l.27.1.21.06A238.8,238.8,0,0,0,274,83.58a6.38,6.38,0,0,1,.72,0c.34,0,.83.07,1.47.11,1.33.11,2.38.22,3.17.35a4.13,4.13,0,0,1,1.76.61v1.83a2.33,2.33,0,0,1-.34,1.28,1.13,1.13,0,0,1-1,.54,95.43,95.43,0,0,0-12.11,1.12,103.66,103.66,0,0,1-11.58,1.07,12.7,12.7,0,0,0-1.66.27,9.9,9.9,0,0,1-1.61.27q-.37,0-3.21.54a24.35,24.35,0,0,1-3.32.48h-.06a1.43,1.43,0,0,1-1.5-.86,3.45,3.45,0,0,1,.38-1.82"/><path class="cls-3" d="M245.43,110.38a2.46,2.46,0,0,1,1.21-.49l1-.32h.26q1.77,0,12.06-3.67t15.23-5.76h-27l-.38.21-.37.22a1.12,1.12,0,0,1-.54.16,1.6,1.6,0,0,1-1.18-.48,1.63,1.63,0,0,1-.48-1.18c0-1.15,1.09-1.72,3.27-1.72l9.16,0c2.75,0,5.83-.06,9.22-.06,1.14,0,2.81.06,5,.17s3.91.16,5,.16a4.69,4.69,0,0,1,4,1.93h-.32a1.63,1.63,0,0,1,.1.42c0,.83-1.43,1.86-4.29,3.11a71.38,71.38,0,0,1-7.23,2.71q-3.81,1.2-10.83,3.19l-1.93.54q-4.33,1.23-6.21,1.87,11.52,1.08,27.22,1.07h.7a5,5,0,0,1,.7,0c1.07,0,1.6.43,1.6,1.29a1.31,1.31,0,0,1-.58,1.15,2.63,2.63,0,0,1-1.51.4h-4q-8.25-.11-17.9-.64t-10.88-1.29a11.58,11.58,0,0,1-.43-1.93,1.24,1.24,0,0,1,.35-1"/><path class="cls-3" d="M245.38,126.62a6.35,6.35,0,0,1,1.47-2.09,7,7,0,0,1,2.2-1.29,15.54,15.54,0,0,1,2.79-.86,18.29,18.29,0,0,1,2.94-.43c1.29-.1,2.4-.18,3.33-.21h5.25c2.07,0,3.77,0,5.09.11a29.91,29.91,0,0,1,5.09.69,12.21,12.21,0,0,1,4.24,1.66,5.88,5.88,0,0,1,2.52,3.17,6.17,6.17,0,0,1,.37,2.25c0,1.53-.44,2.3-1.34,2.3a1.26,1.26,0,0,1-1-.51,1.87,1.87,0,0,1-.4-1.2,2.71,2.71,0,0,1,.05-.59,2.68,2.68,0,0,0,.05-.54,2,2,0,0,0-1-1.61,9,9,0,0,0-2.68-1.18,44,44,0,0,0-7.24-1.18c-2.43-.14-4.23-.21-5.41-.21s-2.88,0-5,.16a22.57,22.57,0,0,0-5.14.91,7.77,7.77,0,0,0-2.07.89,4.67,4.67,0,0,0-1.31,1.31,3.44,3.44,0,0,0-.59,1.88q0,2.56,8.58,2.57h2.46a3.33,3.33,0,0,0,.16-1.23v-1.08c0-1.25.41-1.87,1.24-1.87a1.38,1.38,0,0,1,1.15.51,2,2,0,0,1,.4,1.31h0V131c0,3.22-.56,4.82-1.66,4.82a14.07,14.07,0,0,1-1.93-.26,8.45,8.45,0,0,0-1.93-.32c-.61,0-1.56.05-2.84.16l-2.84.1a5,5,0,0,1-4.05-1.79,6.7,6.7,0,0,1-1.48-4.37,6.41,6.41,0,0,1,.57-2.73"/><path class="cls-3" d="M245,142.13a1.66,1.66,0,0,1,1.18-.61h2.46a9.4,9.4,0,0,1,1.13-.06c.75,0,1.89-.05,3.43-.16l3.43-.11q2.63,0,7.83.17,4.65.21,7.82.21a22.21,22.21,0,0,0,2.25-.16c1-.11,1.79-.16,2.25-.16q3.81,0,3.81,2.25a14.36,14.36,0,0,1-.7,4.1c-.46,1.55-1,2.33-1.66,2.33a1.38,1.38,0,0,1-1-.45,3.33,3.33,0,0,1-.72-1.1,22.13,22.13,0,0,0,1.07-4.08q-.81.06-2.31.06c-1.43,0-2.71,0-3.86-.06-1.71-.1-3-.16-3.86-.16l-.85.16.05.86a8.16,8.16,0,0,1,0,1.07q0,2.58-1.5,2.58a1.26,1.26,0,0,1-1-.49,1.84,1.84,0,0,1-.4-1.23,7.4,7.4,0,0,1,.11-1.5v-1.34c-.93.07-2.29.11-4.08.11s-3.39,0-4.82-.06c-2.18-.1-3.81-.16-4.88-.16a15.8,15.8,0,0,0-3,.11l.05,1.77c0,.61.06,1.34.06,2.2,0,1.35-.43,2-1.29,2a1.26,1.26,0,0,1-1.15-.67,3.08,3.08,0,0,1-.4-1.63v-4.56a1.91,1.91,0,0,1,.48-1.26"/><path class="cls-3" d="M271.72,162.21c4.61,0,7-.74,7.24-2.2-.82-.4-2.75-.59-5.79-.59h-7.93q0,2.79,6.48,2.79m-22.24-.43a7.45,7.45,0,0,0,3.8,1,25.8,25.8,0,0,0,4-.27,10.82,10.82,0,0,0,2.22-.56,6.23,6.23,0,0,0,1.64-.94,2.45,2.45,0,0,0,1-1.5q-3-.21-8.09-.21c-.21,0-.89,0-2-.11l-1.82-.11a.21.21,0,0,0-.16.06h-2.52a4,4,0,0,0,2,2.68m-3.75-5.52a5.76,5.76,0,0,1,1.82-.22c1.53,0,3.43.07,5.68.22s4.06.26,5.74.26c1.89,0,4.73.06,8.52.16l8.47.11a9.2,9.2,0,0,0,1.44-.16l1.34-.16H279a3.36,3.36,0,0,1,1.82.38,1.49,1.49,0,0,1,.59,1.39,7,7,0,0,1-.8,3,5.59,5.59,0,0,1-2,2.42,12.3,12.3,0,0,1-6.43,1.55,20.71,20.71,0,0,1-4.85-.48,10.72,10.72,0,0,1-3.62-1.66,7.11,7.11,0,0,1-3.56,1.95,24.33,24.33,0,0,1-5.44.51,13.29,13.29,0,0,1-5.68-1.12,7.12,7.12,0,0,1-3.76-3.76,9,9,0,0,1-.53-3,1.31,1.31,0,0,1,1-1.44"/><path class="cls-3" d="M257,178.28a112.81,112.81,0,0,0,12.32-.85l5.58-.54q-12.6-2.31-19-3.16c-.36.53-.64,2.11-.86,4.71a11,11,0,0,1,2-.16m-11.9,1.88a1.52,1.52,0,0,1,1.39-.59A45.91,45.91,0,0,0,252,179l1.12-.21.81-5.31c-.83-.21-2.49-.52-5-.91a7.3,7.3,0,0,1-3.48-1,1.27,1.27,0,0,1-.48-1.07,1.91,1.91,0,0,1,.4-1.18,1.22,1.22,0,0,1,1-.53l.27.1.21.06A238.8,238.8,0,0,0,274,174.32l.72.05c.34,0,.83.07,1.47.11,1.33.11,2.38.22,3.17.35a4.13,4.13,0,0,1,1.76.61v1.83a2.31,2.31,0,0,1-.34,1.28,1.13,1.13,0,0,1-1,.54,95.43,95.43,0,0,0-12.11,1.12,103.66,103.66,0,0,1-11.58,1.07,12.7,12.7,0,0,0-1.66.27,9.9,9.9,0,0,1-1.61.27q-.37,0-3.21.54a24.35,24.35,0,0,1-3.32.48h-.06a1.43,1.43,0,0,1-1.5-.86,3.45,3.45,0,0,1,.38-1.82"/><path class="cls-3" d="M245,190.88a4.42,4.42,0,0,1,1.64-1.66,13.7,13.7,0,0,1,5.09-1.66,39.8,39.8,0,0,1,5.9-.38q5.78-.17,14.15-.16l4.12-.05a6.64,6.64,0,0,1,1.07-.06c1.36-.07,2.18-.1,2.47-.1.75.32,1.13.69,1.13,1.12s-.33.81-1,1.15a4.4,4.4,0,0,1-2.09.51H262.93a56.8,56.8,0,0,0-5.68.38q-4.4.38-5.68.37-4,0-4,3.38,0,3.85,28.84,3.86h3.48a1.3,1.3,0,0,1,.43-.05,1.28,1.28,0,0,1,.94.29,1.7,1.7,0,0,1,.29,1.15,1.47,1.47,0,0,1-.4,1.1,1.78,1.78,0,0,1-.94.51,8.47,8.47,0,0,1-1.23,0c-.57,0-1.48,0-2.73-.16a20.48,20.48,0,0,0-2.68-.21,20.3,20.3,0,0,1-2.2-.11l-2.25-.1h-.43a2.28,2.28,0,0,1-.48,0q-23.81,0-23.8-6.92a4.75,4.75,0,0,1,.56-2.3"/><path class="cls-3" d="M246.1,209.8l2.09-.05q.92-.06,2-.06l1.82.06q.58-.17,11.74-.81t14.31-.75a9.76,9.76,0,0,1,.64-4,1.2,1.2,0,0,1,1-.59,1,1,0,0,1,.78.56,2.16,2.16,0,0,1,.34,1.15c0,1-.07,2.22-.21,3.65a27.89,27.89,0,0,0-.27,3.64v.86c0,1.1-.43,1.66-1.29,1.66a1.25,1.25,0,0,1-1-.54,2,2,0,0,1-.4-1.23,8.26,8.26,0,0,1,.16-1.39l.21-1.08-.27,0-.26-.05q-4.77,0-15.23.91-9.8.86-15.22.86a1.43,1.43,0,0,1-1.12-.57,1.88,1.88,0,0,1-.49-1.26Z"/><path class="cls-4" d="M75.68,208.39q1.3-16.19,2.12-49.72.81-34.89,1.14-41.92v-4.67q.65-19.11.65-26.52a5.28,5.28,0,0,1,1.88-4.29,6.54,6.54,0,0,1,4.32-1.56A69.52,69.52,0,0,1,98,80.88a17.49,17.49,0,0,1,6.77,2.53,5.15,5.15,0,0,1,2.53,4.29q0,5.46-8.32,5.46a15.93,15.93,0,0,0-8.48-2h-2v2.34q0,7.61-.65,19.3-.82,10.94-.82,19.7v5.26H90q8,0,8,5.07A5.27,5.27,0,0,1,96.31,147a5.91,5.91,0,0,1-4.16,1.56,17.43,17.43,0,0,1-6.36-1v55.17q0,8.58-4.24,8.58-2.44,0-5.87-2.92"/><path class="cls-4" d="M139.28,166.67q0-17.55-2.61-44.85L135,101.55q-7,45.81-9.62,69.21,2.44,2,14.35,3.12a44.23,44.23,0,0,1-.49-7.21M145,210q-1.8-1.37-1.8-5.07A198.48,198.48,0,0,0,141.56,185l-.65-4.09L124.77,178q-1,4.49-2.78,18.14-1,9.54-3.1,12.67a3.66,3.66,0,0,1-3.26,1.75,5.25,5.25,0,0,1-3.59-1.46,4.66,4.66,0,0,1-1.63-3.61l.33-1,.16-.78q10.77-50.1,16.31-98.85c0-.52.06-1.39.16-2.63s.22-3,.33-5.36q.49-7.22,1.06-11.5a17.06,17.06,0,0,1,1.88-6.44h5.54a6.25,6.25,0,0,1,3.92,1.27,4.33,4.33,0,0,1,1.63,3.61q0,14.81,3.42,44.06,3.27,30,3.26,42.11a52.38,52.38,0,0,0,.82,6,43.41,43.41,0,0,1,.81,5.85q0,1.37,1.64,11.7a105.45,105.45,0,0,1,1.46,12.09v.19q0,4.29-2.61,5.46-3.75,0-5.54-1.36"/><path class="cls-4" d="M161.13,203.51q0-4.68,5.06-4.68H168l1.63.2a1.82,1.82,0,0,0,1.8-1,8.7,8.7,0,0,0,.49-3.5q0-3.31-.33-10.34c-.32-3.12-.71-8.7-1.14-16.77q-1.47-29.82-1.47-45c0-3.64.06-7,.16-10l.17-9.94a98.81,98.81,0,0,0-.49-10.72,15.17,15.17,0,0,1-3.75.78q-3.92,0-3.92-4.68a5,5,0,0,1,2.45-4.09,16.11,16.11,0,0,1,6.2-2.54,50.42,50.42,0,0,1,11.58-1.56,4.25,4.25,0,0,1,3.34,1.66,5.77,5.77,0,0,1,1.39,3.8,6.44,6.44,0,0,1-1.06,3.7,3.15,3.15,0,0,1-2.69,1.56,5.86,5.86,0,0,1-1.64-.19h-1.3a2.91,2.91,0,0,0-2.37.88,5.21,5.21,0,0,0-.73,3.21q0,18.92,2,56.93.31,7,1.3,20.67.83,9,.82,18.33v7.4a20.08,20.08,0,0,1,3.26-.19q6.86,0,6.85,6.82v1.17l-4.08,3.32-1.06.09c-.6.07-1.71.1-3.34.1q-5.22.39-6.69.39-14.19,0-14.19-5.85"/><path class="cls-4" d="M218.62,122.9a70.58,70.58,0,0,0,2.53-17.84,50.78,50.78,0,0,0-1.3-11.7,9.41,9.41,0,0,0-2.7-4.78,6.78,6.78,0,0,0-4.64-1.66l-.33,1-.33,1.75.33,23q.33,10.14.33,22,3.59-2.15,6.11-11.79M226,203.51a122.06,122.06,0,0,1-5-20.86L219.85,176q-4.74-27.87-6-31.78h-2c0,3.78,0,7.22-.16,10.34V165.3q0,26.13,3.1,40.75L213,211.31h-4.57l-2.12-2.92.16-13.07q0-17.53-1.47-53.22-1.31-38-1.3-53.23,0-9.34,5.38-9.35,8.8,0,14.43,5.46t5.63,15.2v13.65a32.81,32.81,0,0,1-.81,6.73,36.65,36.65,0,0,1-1.8,6.14l-3.1,7-2.61,5.84.82,4.68,2.28,13.85q2.28,15,4.41,24.37a108.76,108.76,0,0,0,5.21,17l1,2.34a17.28,17.28,0,0,1,1.63,6.24,6,6,0,0,1-1,3.41,3,3,0,0,1-2.61,1.46q-3.6,0-6.53-9.36"/><path class="cls-3" d="M31.27,283.51a11.1,11.1,0,0,1-3.6-2.54,12.41,12.41,0,0,1-2.23-3.79A26.72,26.72,0,0,1,24,272.37a30.88,30.88,0,0,1-.74-5.09q-.29-3.33-.37-5.73v-9.07q0-5.35.18-8.78a51.06,51.06,0,0,1,1.2-8.79,20.94,20.94,0,0,1,2.87-7.31,10,10,0,0,1,5.46-4.34,10.69,10.69,0,0,1,3.88-.65q4,0,4,2.31a2.2,2.2,0,0,1-.88,1.81,3.28,3.28,0,0,1-2.08.69,5.38,5.38,0,0,1-1-.09,3.91,3.91,0,0,0-.92-.1,3.43,3.43,0,0,0-2.78,1.67,14.72,14.72,0,0,0-2,4.62,74.21,74.21,0,0,0-2,12.49c-.25,4.19-.37,7.31-.37,9.34s.09,5,.28,8.6a38.64,38.64,0,0,0,1.57,8.88,13.13,13.13,0,0,0,1.53,3.56A7.88,7.88,0,0,0,34,278.66a5.87,5.87,0,0,0,3.24,1q4.44,0,4.44-14.79v-4.26a6,6,0,0,0-2.13-.28H37.65c-2.15,0-3.23-.7-3.23-2.12a2.39,2.39,0,0,1,.87-2,3.59,3.59,0,0,1,2.27-.69v.09h1.3c5.54,0,8.32.95,8.32,2.86a22.56,22.56,0,0,1-.46,3.33,15.26,15.26,0,0,0-.56,3.33c0,1.05.09,2.69.28,4.91l.19,4.9a8.55,8.55,0,0,1-3.1,7A11.48,11.48,0,0,1,36,284.48a11.19,11.19,0,0,1-4.72-1"/><path class="cls-3" d="M58.05,284.11a2.87,2.87,0,0,1-1.07-2v-4.26a18.21,18.21,0,0,1-.09-1.94c0-1.29-.09-3.27-.28-5.92L56.43,264q0-4.53.27-13.5.38-8,.37-13.5c0-.86-.09-2.16-.27-3.89s-.28-3.08-.28-3.88q0-6.57,3.88-6.57a24.87,24.87,0,0,1,7.08,1.21q4,1.2,4,2.86a2.38,2.38,0,0,1-.78,1.71,5.82,5.82,0,0,1-1.9,1.25,37.79,37.79,0,0,0-7-1.85c.06.93.09,2.25.09,4q0,3.7-.09,6.66c-.18,3-.28,5.18-.28,6.66l.28,1.48,1.48-.1a15.72,15.72,0,0,1,1.85-.09c3,0,4.44.87,4.44,2.59a2.15,2.15,0,0,1-.83,1.71,3.25,3.25,0,0,1-2.13.7,13.36,13.36,0,0,1-2.59-.19H61.7c.12,1.6.18,3.95.18,7s0,5.86-.09,8.32c-.18,3.77-.28,6.57-.28,8.42,0,3.45.06,5.18.19,5.18l3-.09c1-.06,2.31-.1,3.79-.1,2.35,0,3.52.74,3.52,2.22a2.19,2.19,0,0,1-1.16,2,5.41,5.41,0,0,1-2.82.7H60.22a3.22,3.22,0,0,1-2.17-.84"/><path class="cls-3" d="M95.36,268.48l.1-5.27.09-4.25v-1.21a14.61,14.61,0,0,0,.09-1.75.75.75,0,0,0-.28-.47.73.73,0,0,1-.27-.46V255a5.26,5.26,0,0,1-1.67.18,14.56,14.56,0,0,1-3-.37l-3-.46V265q0,2.4.28,7.58c.18,3.39.28,5.92.28,7.59a4,4,0,0,1-.74,2.4,2.3,2.3,0,0,1-1.94,1c-1.18,0-2-1.14-2.5-3.42a45.55,45.55,0,0,1-.74-9.16l.18-7.49c.06-2.1.1-4.32.1-6.66V254a12.46,12.46,0,0,0-.1-1.94v-.46l.28-5.37q0-3.51-.28-10.45t-.27-10.45a2.79,2.79,0,0,1,.74-1.94,2.35,2.35,0,0,1,1.85-.83q3,0,3,5.55l-.18,11.46c-.12,3.46-.19,7.31-.19,11.57a18.54,18.54,0,0,0,5,.46h3.42a3.6,3.6,0,0,0,.19-1.11q0-4.44-.56-13.14-.64-8.13-.65-13.22a2.2,2.2,0,0,1,.79-1.71,2.79,2.79,0,0,1,1.9-.7,5.73,5.73,0,0,1,1.85.47l.83.37q0,13.13.92,35l.84,23.4a2.41,2.41,0,0,1-1,2,3.57,3.57,0,0,1-2.26.74q-3.15,0-3.15-15.26"/><path class="cls-3" d="M124.68,263.4a193.9,193.9,0,0,0-1.48-21.28l-.92-9.61q-4,21.74-5.46,32.83,1.4.93,8.14,1.48a17.46,17.46,0,0,1-.28-3.42m3.24,20.53a2.63,2.63,0,0,1-1-2.41,80.55,80.55,0,0,0-.92-9.43l-.37-1.94-9.16-1.39q-.56,2.13-1.57,8.6c-.37,3-1,5-1.76,6a2.2,2.2,0,0,1-1.85.84,3.31,3.31,0,0,1-2-.7,2.06,2.06,0,0,1-.93-1.71l.19-.46.09-.37a412.39,412.39,0,0,0,9.25-46.89c0-.25,0-.66.09-1.25s.12-1.43.19-2.54q.27-3.42.6-5.46a7.1,7.1,0,0,1,1.06-3.05h3.14a4,4,0,0,1,2.22.6,1.92,1.92,0,0,1,.93,1.71A165.62,165.62,0,0,0,128,245a182.67,182.67,0,0,1,1.85,20,21.07,21.07,0,0,0,.46,2.87,17.23,17.23,0,0,1,.47,2.77c0,.43.3,2.28.92,5.55a40.74,40.74,0,0,1,.83,5.73v.1a2.44,2.44,0,0,1-1.48,2.59,6,6,0,0,1-3.14-.65"/><path class="cls-3" d="M164.08,283.42a4.2,4.2,0,0,1-.83-2.08l-.56-1.76v-.46q0-3.06-6.33-20.81t-10-26.27v46.52l.37.65.37.65a1.75,1.75,0,0,1,.28.92,2.83,2.83,0,0,1-2.87,2.87q-3,0-2.95-5.64l-.1-15.82c-.06-4.74-.09-10.05-.09-15.9,0-2,.09-4.84.28-8.6s.28-6.76.28-8.61a8.1,8.1,0,0,1,3.32-6.84v.55a3.13,3.13,0,0,1,.74-.18q2.13,0,5.37,7.4a129.77,129.77,0,0,1,4.67,12.48q2.08,6.57,5.5,18.69l.93,3.33q2.12,7.49,3.23,10.72,1.86-19.87,1.85-47v-1.2a7.51,7.51,0,0,1-.09-1.2c0-1.85.74-2.78,2.22-2.78a2.26,2.26,0,0,1,2,1,4.52,4.52,0,0,1,.69,2.59v6.94q-.18,14.24-1.11,30.89t-2.22,18.77a19.1,19.1,0,0,1-3.33.74,2.15,2.15,0,0,1-1.66-.6"/><path class="cls-3" d="M195.25,278.61a8.86,8.86,0,0,0,2.68-2.64,18.59,18.59,0,0,0,1.71-3.74,29.21,29.21,0,0,0,1.16-4.39,55.57,55.57,0,0,0,1-8.51c.06-.74.1-1.82.1-3.24q0-27.93-10.83-29.13a63.47,63.47,0,0,0-.64,9.62q0,5.82.74,20.34.65,12.85.64,20.44v2.22a6.38,6.38,0,0,0,3.43-1m-9.9-6.43.19-14.61q.09-6.48.09-14.52c0-2-.19-5-.56-9.16q-.47-6.75-.46-8.23a2.82,2.82,0,0,1,1-2.13,3.27,3.27,0,0,1,2.22-.92,14.38,14.38,0,0,1,6.24,1.43,16.82,16.82,0,0,1,5.32,4,28.61,28.61,0,0,1,6.47,12.39,28.21,28.21,0,0,1,.83,6.75q0,1.2-.09,2.22l-.09,2.5V257a90.84,90.84,0,0,1-.37,9.35,29.26,29.26,0,0,1-2.13,8.23,21.18,21.18,0,0,1-5.36,6.93,25.37,25.37,0,0,1-4.26,2.78h-6.65q-2.41,0-2.41-12.12"/><path class="cls-3" d="M218.88,284.11a2.87,2.87,0,0,1-1.07-2v-4.26a18.21,18.21,0,0,1-.09-1.94c0-1.29-.09-3.27-.28-5.92l-.18-5.92q0-4.53.28-13.5.36-8,.36-13.5c0-.86-.09-2.16-.27-3.89s-.28-3.08-.28-3.88q0-6.57,3.88-6.57a24.87,24.87,0,0,1,7.08,1.21q4,1.2,4,2.86a2.38,2.38,0,0,1-.78,1.71,5.82,5.82,0,0,1-1.9,1.25,37.79,37.79,0,0,0-7-1.85c.06.93.09,2.25.09,4q0,3.7-.09,6.66c-.18,3-.28,5.18-.28,6.66l.28,1.48,1.48-.1a15.72,15.72,0,0,1,1.85-.09c3,0,4.44.87,4.44,2.59a2.15,2.15,0,0,1-.83,1.71,3.25,3.25,0,0,1-2.13.7,13.36,13.36,0,0,1-2.59-.19h-2.31c.12,1.6.18,3.95.18,7s0,5.86-.09,8.32c-.18,3.77-.28,6.57-.28,8.42,0,3.45.06,5.18.19,5.18l3.05-.09c1-.06,2.31-.1,3.79-.1,2.35,0,3.52.74,3.52,2.22a2.19,2.19,0,0,1-1.16,2,5.41,5.41,0,0,1-2.82.7h-7.86a3.22,3.22,0,0,1-2.17-.84"/><path class="cls-3" d="M249.07,284.11a5.78,5.78,0,0,1-3.14.93,2.4,2.4,0,0,1-1.9-1,3.27,3.27,0,0,1-.78-2.08q0-7.77.64-20.72.56-13.78.56-20.62V240c-.37-3.89-.56-6.78-.56-8.7q0-8.78,3.24-8.78a2.36,2.36,0,0,1,2.31,2.31,35.16,35.16,0,0,1-.27,3.51,31.17,31.17,0,0,0-.28,3.52q0,6.19.09,11.19t.09,11.1a12.73,12.73,0,0,0-.46,3.88v1.11l-.18,7.31c-.13,2.16-.19,4.62-.19,7.4q0,6.38,3,6.38c.13,0,.33,0,.6-.05s.67,0,1.16,0a20,20,0,0,1,2.13-.1q5,0,5,2.78a1.93,1.93,0,0,1-.83,1.57,4.35,4.35,0,0,1-2,.83,26.29,26.29,0,0,0-8.23-1.11"/><path class="cls-3" d="M273,282.26l-.1-3.6c-.06-1.05-.09-2.22-.09-3.52l.09-3.14q-.27-1-1.38-20.26t-1.3-24.69q-5.37-.18-6.84-1.11a2.08,2.08,0,0,1-1-1.67c0-.49.32-.93,1-1.34a3.75,3.75,0,0,1,2-.6c1.72,0,3.82.13,6.29.37a48.36,48.36,0,0,0,6.29.46h1.48c1.91,0,2.86.74,2.86,2.22a2.17,2.17,0,0,1-.92,1.81,3.48,3.48,0,0,1-2.13.69,14.52,14.52,0,0,1-2.4-.28l-1.85-.37-.09.47-.1.46q0,8.24,1.57,26.27,1.48,16.92,1.48,26.26a2.47,2.47,0,0,1-1,1.94,3.22,3.22,0,0,1-2.17.84Z"/></g><rect class="cls-5" x="4.5" y="4.5" width="297.52" height="297.53"/></g></g></svg>