<svg xmlns="http://www.w3.org/2000/svg" xmlns:xlink="http://www.w3.org/1999/xlink" viewBox="0 0 132.45 136.23"><defs><style>.cls-1{fill:none;}.cls-2{clip-path:url(#clip-path);}.cls-3{fill:#c9c6e1;}.cls-4{fill:#939ac1;}</style><clipPath id="clip-path" transform="translate(5.32 -5.74)"><polygon class="cls-1" points="1 18 103 10 108 0 0 4 1 18"/></clipPath></defs><g id="Ebene_2" data-name="Ebene 2"><g id="Ebene_1-2" data-name="Ebene 1"><g class="cls-2"><path class="cls-3" d="M90.45,37.78c3,.12.09-1.87.09-1.87L50.75,30.52s36.71,7.14,39.7,7.26" transform="translate(5.32 -5.74)"/><path class="cls-3" d="M122.72,141.69c9.69,1.37.38-2.7.38-2.7L-5.32,115.42s118.35,24.91,128,26.27" transform="translate(5.32 -5.74)"/><path class="cls-4" d="M7.41,9.83C.75,10.94,8,12,8,12L98.07,5.74s-84,3-90.66,4.09" transform="translate(5.32 -5.74)"/></g></g></g></svg>